P2
# Created by GIMP version 2.10.30 PNM plug-in
30 30
255
255
255
255
255
255
255
255
255
255
255
255
255
255
255
255
255
255
255
255
255
255
255
255
255
255
255
255
255
255
255
255
255
255
255
255
255
255
255
255
255
255
255
255
255
255
255
255
255
255
255
255
255
255
255
255
255
255
255
255
255
255
255
255
255
255
255
255
255
255
255
255
255
255
255
255
255
255
255
255
255
255
255
255
255
255
255
255
255
255
255
255
255
255
255
255
255
255
255
255
255
255
255
255
255
255
255
255
255
255
255
255
255
255
255
255
255
255
255
255
255
255
255
255
255
255
255
255
255
255
255
255
232
188
122
110
185
149
188
255
255
255
255
255
255
255
255
255
255
255
255
255
255
255
255
255
255
255
255
255
255
255
110
6
0
0
0
0
0
38
88
255
255
255
255
255
255
255
255
255
255
255
255
255
255
255
255
255
255
255
255
0
33
0
170
255
255
255
188
38
0
154
255
255
255
255
255
255
255
255
255
255
255
255
255
255
255
255
255
255
88
25
21
232
255
255
255
255
255
255
43
38
255
255
255
255
255
255
255
255
255
255
255
255
255
255
255
255
255
255
0
0
232
255
255
255
255
255
255
255
210
33
88
255
255
255
255
255
255
255
255
255
255
255
255
255
255
255
255
0
38
89
255
255
255
255
255
255
255
255
255
88
0
232
255
255
255
255
255
255
255
255
255
255
255
255
255
255
255
79
0
255
255
255
255
255
255
255
255
255
255
137
49
188
255
255
255
255
255
255
255
255
255
255
255
255
255
255
210
56
0
255
255
255
255
255
255
255
255
255
255
232
18
99
255
255
255
255
255
255
255
255
255
255
255
255
255
255
88
25
71
255
255
255
255
255
255
255
255
255
255
255
18
44
255
255
255
255
255
255
255
255
255
255
255
255
255
255
170
0
232
255
255
255
254
255
255
255
255
252
255
255
43
6
232
255
255
255
255
255
255
255
255
255
255
255
255
255
0
38
232
255
255
255
255
255
255
255
255
255
255
252
29
57
255
255
255
255
255
255
255
255
255
255
255
255
255
255
79
33
232
255
255
255
255
255
255
255
255
255
255
255
49
49
255
255
255
255
255
255
255
255
255
255
255
255
255
255
79
33
232
255
255
255
255
255
255
255
255
255
255
255
99
99
255
255
255
255
255
255
255
255
255
255
255
255
255
255
89
15
232
255
255
255
255
255
255
255
255
255
254
255
43
89
255
255
255
255
255
255
255
255
255
255
255
255
255
255
137
0
210
255
255
255
255
255
255
255
255
255
250
188
62
170
255
255
255
255
255
255
255
255
255
255
255
255
255
255
188
0
188
255
255
255
255
255
255
255
255
255
255
25
124
255
255
255
255
255
255
255
255
255
255
255
255
255
255
255
232
88
0
255
255
255
255
255
255
255
255
255
154
49
255
255
255
255
255
255
255
255
255
255
255
255
255
255
255
255
255
122
33
232
255
255
255
255
255
255
255
232
43
124
255
255
255
255
255
255
255
255
255
255
255
255
255
255
255
255
255
255
0
122
255
255
255
255
255
255
188
110
0
255
255
255
255
255
255
255
255
255
255
255
255
255
255
255
255
255
255
255
188
38
170
232
255
232
188
0
56
49
255
255
255
255
255
255
255
255
255
255
255
255
255
255
255
255
255
255
255
255
255
154
0
55
0
0
0
88
188
232
255
255
255
255
255
255
255
255
255
255
255
255
255
255
255
255
255
255
255
255
255
255
255
232
232
255
255
255
255
255
255
255
255
255
255
255
255
255
255
255
255
255
255
255
255
255
255
255
255
255
255
255
255
255
255
255
255
255
255
255
255
255
255
255
255
255
255
255
255
255
255
255
255
255
255
255
255
255
255
255
255
255
255
255
255
255
255
255
255
255
255
255
255
255
255
255
255
255
255
255
255
255
255
255
255
255
255
255
255
255
255
255
255
255
255
255
255
255
255
255
255
255
255
255
255
255
255
255
255
255
255
255
255
255
255
255
255
255
255
255
255
255
255
255
255
255
255
255
255
255
255
255
255
255
255
255
255
255
255
255
255
