P2
# Created by GIMP version 2.10.30 PNM plug-in
30 30
255
255
255
255
255
255
255
255
255
255
255
255
255
255
255
255
255
255
255
255
255
255
255
255
255
255
255
255
255
255
255
255
255
255
255
255
255
255
255
255
255
255
255
255
255
255
255
255
255
255
255
255
255
255
255
255
255
255
255
255
255
255
255
255
255
255
255
255
255
255
255
255
255
255
255
255
255
255
255
255
255
255
255
255
255
255
255
255
255
255
255
255
255
255
255
255
255
255
255
255
255
255
255
255
255
232
124
0
0
0
25
124
255
255
255
255
255
255
255
255
255
255
255
255
255
255
255
255
255
255
255
255
255
255
137
25
0
79
170
88
124
63
0
255
255
255
255
255
255
255
255
255
255
255
255
255
255
255
255
255
255
255
255
0
0
124
253
232
202
184
188
43
0
110
255
255
255
255
255
255
255
255
255
255
255
255
255
255
255
255
255
255
124
0
188
255
255
255
244
243
255
255
0
21
170
255
255
255
255
255
255
255
255
255
255
255
255
255
255
255
255
124
8
170
255
255
255
255
255
255
255
255
188
79
0
255
255
255
255
255
255
255
255
255
255
255
255
255
255
255
137
34
99
255
255
255
255
255
255
255
255
255
255
188
0
232
255
255
255
255
255
255
255
255
255
255
255
255
255
255
124
0
255
255
255
255
255
255
255
255
255
255
255
188
0
232
255
255
255
255
255
255
255
255
255
255
255
255
255
137
63
62
255
255
255
255
255
255
255
255
255
255
255
170
38
232
255
255
255
255
255
255
255
255
255
255
255
255
255
88
0
188
255
255
255
255
255
255
255
255
255
255
255
88
71
232
255
255
255
255
255
255
255
255
255
255
255
255
255
0
0
255
255
255
255
255
255
255
255
255
255
255
255
88
33
232
255
255
255
255
255
255
255
255
255
255
255
255
137
29
124
255
255
255
254
255
255
255
255
252
255
255
232
55
110
232
255
255
255
255
255
255
255
255
255
255
255
255
124
25
232
255
255
255
255
255
255
255
255
255
255
252
170
56
122
255
255
255
255
255
255
255
255
255
255
255
255
255
0
137
255
255
255
255
255
255
255
255
255
255
255
255
62
80
122
255
255
255
255
255
255
255
255
255
255
255
255
232
0
137
255
255
255
255
255
255
255
255
255
255
255
232
55
110
232
255
255
255
255
255
255
255
255
255
255
255
255
232
0
232
255
255
255
255
255
255
255
255
255
255
254
0
99
188
255
255
255
255
255
255
255
255
255
255
255
255
255
232
0
255
255
255
255
255
255
255
255
255
255
255
184
0
88
255
255
255
255
255
255
255
255
255
255
255
255
255
255
255
0
170
255
255
255
255
255
255
255
255
255
188
43
110
170
255
255
255
255
255
255
255
255
255
255
255
255
255
255
255
21
191
255
255
255
255
255
255
255
255
255
0
112
122
255
255
255
255
255
255
255
255
255
255
255
255
255
255
255
255
15
57
255
255
255
255
255
255
255
255
0
88
0
255
255
255
255
255
255
255
255
255
255
255
255
255
255
255
255
255
137
0
255
255
255
255
255
255
124
137
43
122
255
255
255
255
255
255
255
255
255
255
255
255
255
255
255
255
255
255
232
0
79
255
255
232
88
0
25
38
188
232
255
255
255
255
255
255
255
255
255
255
255
255
255
255
255
255
255
255
255
110
0
0
0
62
25
55
62
210
255
255
255
255
255
255
255
255
255
255
255
255
255
255
255
255
255
255
255
255
255
255
0
56
99
137
154
232
255
255
255
255
255
255
255
255
255
255
255
255
255
255
255
255
255
255
255
255
255
255
255
255
255
255
255
255
255
255
255
255
255
255
255
255
255
255
255
255
255
255
255
255
255
255
255
255
255
255
255
255
255
255
255
255
255
255
255
255
255
255
255
255
255
255
255
255
255
255
255
255
255
255
255
255
255
255
255
255
255
255
255
255
255
255
255
255
255
255
255
255
255
255
255
255
255
255
255
255
255
255
255
255
255
255
255
255
255
255
255
255
255
255
255
255
255
255
255
255
255
255
255
255
255
255
255
255
255
255
255
255
255
255
255
