P2
# Created by GIMP version 2.10.30 PNM plug-in
30 30
255
255
255
255
255
255
255
255
255
255
255
255
255
255
255
255
255
255
255
255
255
255
255
255
255
255
255
255
255
255
255
255
255
255
255
255
255
255
255
255
255
255
255
255
255
255
255
255
255
255
255
255
255
255
255
255
255
255
255
255
255
255
255
255
255
255
255
255
255
255
255
255
255
255
255
255
255
255
255
255
255
255
255
255
255
255
255
255
255
255
255
255
255
255
255
255
255
255
255
255
255
255
255
255
255
255
255
255
255
255
255
255
255
255
255
255
255
255
255
255
255
255
255
255
255
255
255
255
255
255
255
255
255
232
232
232
232
255
255
255
255
255
255
255
255
255
255
255
255
255
255
255
255
255
255
255
255
255
255
255
255
255
188
122
62
25
37
0
0
154
137
232
255
255
255
255
255
255
255
255
255
255
255
255
255
255
255
255
255
255
255
255
99
0
137
124
154
124
71
15
18
0
79
62
232
255
255
255
255
255
255
255
255
255
255
255
255
255
255
255
255
62
63
89
88
188
122
188
137
170
56
122
21
71
62
188
255
255
255
255
255
255
255
255
255
255
255
255
255
255
137
22
25
188
170
188
255
255
255
255
255
255
232
188
38
15
49
255
255
255
255
255
255
255
255
255
255
255
255
188
0
18
110
255
255
255
255
255
255
255
255
255
255
255
232
100
10
79
255
255
255
255
255
255
255
255
255
255
255
99
0
188
255
255
255
255
255
255
255
255
255
255
255
255
255
255
170
0
170
255
255
255
255
255
255
255
255
255
137
15
43
255
255
255
255
255
255
255
255
255
255
255
255
255
255
255
255
49
43
232
255
255
255
255
255
255
255
232
79
21
170
255
255
255
255
255
255
255
255
255
255
255
255
255
255
255
255
188
43
170
255
255
255
255
255
255
255
232
0
0
255
255
255
255
254
255
255
255
255
252
255
255
255
255
255
255
255
232
43
137
255
255
255
255
255
255
255
232
0
79
255
255
255
255
255
255
255
255
255
255
255
252
255
255
255
255
255
255
0
88
255
255
255
255
255
255
255
137
56
110
255
255
255
255
255
255
255
255
255
255
255
255
255
255
255
255
255
255
0
170
255
255
255
255
255
255
255
188
25
154
255
255
255
255
255
255
255
255
255
255
255
255
255
255
255
255
255
255
0
170
255
255
255
255
255
255
255
188
43
89
255
255
255
255
255
255
255
255
255
255
254
255
255
255
255
255
255
232
0
170
255
255
255
255
255
255
255
255
0
38
255
255
255
255
255
255
255
255
255
255
250
255
255
255
255
255
255
99
29
232
255
255
255
255
255
255
255
255
99
63
137
255
255
255
255
255
255
255
255
255
255
255
255
255
255
255
232
10
154
255
255
255
255
255
255
255
255
255
137
0
137
232
255
255
255
255
255
255
255
255
255
255
255
255
255
255
10
18
255
255
255
255
255
255
255
255
255
255
255
0
8
79
188
255
255
255
255
255
255
255
255
255
255
255
255
38
33
232
255
255
255
255
255
255
255
255
255
255
255
170
21
56
154
122
232
255
255
255
255
255
255
232
188
88
0
43
255
255
255
255
255
255
255
255
255
255
255
255
255
255
255
79
49
0
0
0
29
62
62
43
0
0
62
0
170
255
255
255
255
255
255
255
255
255
255
255
255
255
255
255
255
255
255
255
232
170
63
124
124
89
137
170
170
255
255
255
255
255
255
255
255
255
255
255
255
255
255
255
255
255
255
255
255
255
255
255
255
255
255
255
255
255
255
255
255
255
255
255
255
255
255
255
255
255
255
255
255
255
255
255
255
255
255
255
255
255
255
255
255
255
255
255
255
255
255
255
255
255
255
255
255
255
255
255
255
255
255
255
255
255
255
255
255
255
255
255
255
255
255
255
255
255
255
255
255
255
255
255
255
255
255
255
255
255
255
255
255
255
255
255
255
255
255
255
255
255
255
255
255
255
255
255
255
255
255
255
255
255
255
255
255
255
255
255
255
255
255
255
255
255
255
255
255
255
255
255
255
255
255
255
255
255
255
255
255
255
255
255
255
255
255
