P2
# Created by GIMP version 2.10.30 PNM plug-in
30 30
255
255
255
255
255
255
255
255
255
255
255
255
255
255
255
255
255
255
255
255
255
255
255
255
255
255
255
255
255
255
255
255
255
255
255
255
255
255
255
255
255
255
255
255
255
255
255
255
255
255
255
255
255
255
255
255
255
255
255
255
255
255
255
255
255
255
255
255
255
255
255
255
255
255
255
255
255
255
255
255
255
255
255
255
255
255
255
255
255
255
255
255
255
255
255
255
255
255
255
255
255
255
255
255
255
255
255
255
255
255
255
255
255
255
255
255
255
255
255
255
255
255
255
255
255
255
255
255
255
255
255
255
255
255
255
255
255
255
255
255
255
255
255
255
255
255
255
255
255
255
255
255
255
255
255
255
255
255
255
255
255
255
255
232
188
0
233
252
254
255
255
255
255
255
255
255
255
255
255
255
255
255
255
255
255
255
255
255
255
255
255
255
137
33
0
0
0
126
170
254
255
255
255
255
255
255
255
255
255
255
255
255
255
255
255
255
255
255
255
255
255
170
29
89
170
232
188
0
38
62
255
255
255
255
255
255
255
255
255
255
255
255
255
255
255
255
255
255
255
255
255
0
99
188
255
255
255
255
188
0
55
210
255
255
255
255
255
255
255
255
255
255
255
255
255
255
255
255
255
255
137
0
170
255
255
255
255
255
255
255
0
38
255
255
255
255
255
255
255
255
255
255
255
255
255
255
255
255
255
255
25
0
255
255
255
255
255
255
255
255
255
55
210
255
255
255
255
255
255
255
255
255
255
255
255
255
255
255
255
255
0
170
255
255
255
255
255
255
255
255
232
79
188
255
255
255
255
255
255
255
255
255
255
255
255
255
255
255
255
188
0
232
255
255
255
255
255
255
255
255
255
62
137
255
255
255
255
255
255
255
255
255
255
255
255
255
255
255
255
124
0
255
255
255
254
255
255
255
255
252
255
88
170
255
255
255
255
255
255
255
255
255
255
255
255
255
255
255
255
0
62
255
255
255
255
255
255
255
255
255
255
87
124
255
255
255
255
255
255
255
255
255
255
255
255
255
255
255
255
0
110
255
255
255
255
255
255
255
255
255
255
0
137
255
255
255
255
255
255
255
255
255
255
255
255
255
255
255
188
124
88
255
255
255
255
255
255
255
255
255
232
55
232
255
255
255
255
255
255
255
255
255
255
255
255
255
255
255
255
62
124
255
255
255
255
255
255
255
255
255
187
79
232
255
255
255
255
255
255
255
255
255
255
255
255
255
255
255
255
43
80
255
255
255
255
255
255
255
255
255
108
44
255
255
255
255
255
255
255
255
255
255
255
255
255
255
255
255
255
170
12
232
255
255
255
255
255
255
255
255
0
88
255
255
255
255
255
255
255
255
255
255
255
255
255
255
255
255
255
232
21
154
255
255
255
255
255
255
255
188
0
255
255
255
255
255
255
255
255
255
255
255
255
255
255
255
255
255
255
255
122
0
255
255
255
255
255
255
188
137
79
255
255
255
255
255
255
255
255
255
255
255
255
255
255
255
255
255
255
255
255
170
0
62
170
232
232
137
0
88
255
255
255
255
255
255
255
255
255
255
255
255
255
255
255
255
255
255
255
255
255
255
255
89
62
0
55
0
188
232
255
255
255
255
255
255
255
255
255
255
255
255
255
255
255
255
255
255
255
255
255
255
255
255
255
255
232
255
255
255
255
255
255
255
255
255
255
255
255
255
255
255
255
255
255
255
255
255
255
255
255
255
255
255
255
255
255
255
255
255
255
255
255
255
255
255
255
255
255
255
255
255
255
255
255
255
255
255
255
255
255
255
255
255
255
255
255
255
255
255
255
255
255
255
255
255
255
255
255
255
255
255
255
255
255
255
255
255
255
255
255
255
255
255
255
255
255
255
255
255
255
255
255
255
255
255
255
255
255
255
255
255
255
255
255
255
255
255
255
255
255
255
255
255
255
255
255
255
255
255
255
255
255
255
255
255
255
255
255
255
255
255
255
255
255
255
255
255
255
255
255
255
255
255
255
255
255
255
255
255
255
255
255
255
255
255
255
255
255
255
255
