P2
# Created by GIMP version 2.10.30 PNM plug-in
30 30
255
255
255
255
255
255
255
255
255
255
255
255
255
255
255
255
255
255
255
255
255
255
255
255
255
255
255
255
255
255
255
255
255
255
255
255
255
255
255
255
255
255
255
255
255
255
255
255
255
255
255
255
255
255
255
255
255
255
255
255
255
255
255
255
255
255
255
255
255
255
255
255
255
255
255
255
255
255
255
255
255
255
255
255
255
255
255
255
255
255
255
255
255
255
255
255
255
255
255
255
255
255
255
255
255
255
255
255
255
255
255
255
255
255
255
255
255
255
255
255
255
255
255
255
255
255
255
255
255
255
255
255
255
188
170
147
85
72
137
255
255
255
255
255
255
255
255
255
255
255
255
255
255
255
255
255
255
255
255
255
255
255
255
62
0
28
42
6
0
29
89
255
255
255
255
255
255
255
255
255
255
255
255
255
255
255
255
255
255
255
255
255
137
0
88
122
122
170
79
49
63
0
232
255
255
255
255
255
255
255
255
255
255
255
255
255
255
255
255
255
255
170
12
124
170
232
255
188
188
188
137
112
38
188
255
255
255
255
255
255
255
255
255
255
255
255
255
255
255
255
188
0
0
255
255
255
255
255
255
255
188
122
99
79
232
255
255
255
255
255
255
255
255
255
255
255
255
255
255
255
99
38
232
255
255
255
255
255
255
255
255
255
0
0
122
255
255
255
255
255
255
255
255
255
255
255
255
255
255
232
38
43
255
255
255
255
255
255
255
255
255
255
255
0
79
232
255
255
255
255
255
255
255
255
255
255
255
255
255
255
0
137
255
255
255
255
255
255
255
255
255
255
255
79
62
188
255
255
255
255
255
255
255
255
255
255
255
255
255
210
21
232
255
255
255
255
255
255
255
255
255
255
255
210
0
188
255
255
255
255
255
255
255
255
255
255
255
255
255
232
0
232
255
255
254
255
255
255
255
252
255
255
255
255
0
210
255
255
255
255
255
255
255
255
255
255
255
255
255
137
0
255
255
255
255
255
255
255
255
255
255
252
255
255
0
210
255
255
255
255
255
255
255
255
255
255
255
255
255
89
43
255
255
255
255
255
255
255
255
255
255
255
255
232
0
232
255
255
255
255
255
255
255
255
255
255
255
255
255
124
62
255
255
255
255
255
255
255
255
255
255
255
255
170
0
255
255
255
255
255
255
255
255
255
255
255
255
255
255
124
62
255
255
255
255
255
255
255
255
255
254
255
255
124
62
255
255
255
255
255
255
255
255
255
255
255
255
255
255
154
38
255
255
255
255
255
255
255
255
255
250
255
88
44
99
255
255
255
255
255
255
255
255
255
255
255
255
255
255
170
0
255
255
255
255
255
255
255
255
255
255
232
33
56
232
255
255
255
255
255
255
255
255
255
255
255
255
255
255
188
0
0
255
255
255
255
255
255
255
255
255
0
0
0
255
255
255
255
255
255
255
255
255
255
255
255
255
255
255
232
56
29
188
255
255
255
255
255
255
232
21
0
188
255
255
255
255
255
255
255
255
255
255
255
255
255
255
255
255
255
188
137
0
0
99
100
170
62
124
0
0
122
255
255
255
255
255
255
255
255
255
255
255
255
255
255
255
255
255
255
255
255
170
0
99
49
0
0
0
79
255
255
255
255
255
255
255
255
255
255
255
255
255
255
255
255
255
255
255
255
255
255
255
255
255
255
255
255
255
255
255
255
255
255
255
255
255
255
255
255
255
255
255
255
255
255
255
255
255
255
255
255
255
255
255
255
255
255
255
255
255
255
255
255
255
255
255
255
255
255
255
255
255
255
255
255
255
255
255
255
255
255
255
255
255
255
255
255
255
255
255
255
255
255
255
255
255
255
255
255
255
255
255
255
255
255
255
255
255
255
255
255
255
255
255
255
255
255
255
255
255
255
255
255
255
255
255
255
255
255
255
255
255
255
255
255
255
255
255
255
255
255
255
255
255
255
255
255
255
255
255
255
255
255
255
255
255
255
255
255
255
255
255
255
255
255
255
255
255
255
255
255
255
255
255
255
255
255
255
255
255
255
255
255
255
255
255
255
255
255
255
