P2
# Created by GIMP version 2.10.30 PNM plug-in
30 30
255
255
255
255
255
255
255
255
255
255
255
255
255
255
255
255
255
255
255
255
255
255
255
255
255
255
255
255
255
255
255
255
255
255
255
255
255
255
255
255
255
255
255
255
255
255
255
255
255
255
255
255
255
255
255
255
255
255
255
255
255
255
255
255
255
255
255
255
255
255
255
255
255
255
255
255
255
255
255
255
255
255
255
255
255
255
255
255
255
255
255
255
255
255
255
255
255
255
255
255
255
255
255
255
255
255
255
255
255
255
255
255
255
255
255
255
255
255
255
255
255
255
255
255
255
255
255
255
255
255
255
255
255
112
29
29
71
124
137
255
255
255
255
255
255
255
255
255
255
255
255
255
255
255
255
255
255
255
255
255
255
255
0
15
0
63
0
0
0
170
255
255
255
255
255
255
255
255
255
255
255
255
255
255
255
255
255
255
255
255
255
79
0
188
255
255
255
188
170
8
137
255
255
255
255
255
255
255
255
255
255
255
255
255
255
255
255
255
255
255
232
0
170
255
255
255
255
255
255
72
0
232
255
255
255
255
255
255
255
255
255
255
255
255
255
255
255
255
255
255
12
62
255
255
255
255
255
255
255
229
0
71
255
255
255
255
255
255
255
255
255
255
255
255
255
255
255
255
255
170
0
232
255
255
255
255
255
255
255
255
57
43
255
255
255
255
255
255
255
255
255
255
255
255
255
255
255
255
255
6
0
255
255
255
255
255
255
255
255
255
210
55
255
255
255
255
255
255
255
255
255
255
255
255
255
255
255
255
255
0
62
255
255
255
255
255
255
255
255
255
232
0
255
255
255
255
255
255
255
255
255
255
255
255
255
255
255
255
255
62
0
255
255
255
255
255
255
255
255
255
232
0
255
255
255
255
255
255
255
255
255
255
255
255
255
255
255
255
255
0
0
255
255
255
254
255
255
255
255
252
232
0
232
255
255
255
255
255
255
255
255
255
255
255
255
255
255
255
255
0
15
255
255
255
255
255
255
255
255
255
188
0
170
255
255
255
255
255
255
255
255
255
255
255
255
255
255
255
255
0
43
255
255
255
255
255
255
255
255
255
124
0
232
255
255
255
255
255
255
255
255
255
255
255
255
255
255
255
255
0
33
232
255
255
255
255
255
255
255
255
99
15
255
255
255
255
255
255
255
255
255
255
255
255
255
255
255
255
255
170
0
191
255
255
255
255
255
255
255
255
0
210
255
255
255
255
255
255
255
255
255
255
255
255
255
255
255
255
255
255
0
29
255
255
255
255
255
255
255
0
69
255
255
255
255
255
255
255
255
255
255
255
255
255
255
255
255
255
255
255
170
8
71
232
255
255
255
255
154
0
124
255
255
255
255
255
255
255
255
255
255
255
255
255
255
255
255
255
255
255
255
112
0
25
188
232
232
140
25
55
255
255
255
255
255
255
255
255
255
255
255
255
255
255
255
255
255
255
255
255
255
255
100
34
0
38
55
21
55
255
255
255
255
255
255
255
255
255
255
255
255
255
255
255
255
255
255
255
255
255
255
255
255
232
188
232
232
232
255
255
255
255
255
255
255
255
255
255
255
255
255
255
255
255
255
255
255
255
255
255
255
255
255
255
255
255
255
255
255
255
255
255
255
255
255
255
255
255
255
255
255
255
255
255
255
255
255
255
255
255
255
255
255
255
255
255
255
255
255
255
255
255
255
255
255
255
255
255
255
255
255
255
255
255
255
255
255
255
255
255
255
255
255
255
255
255
255
255
255
255
255
255
255
255
255
255
255
255
255
255
255
255
255
255
255
255
255
255
255
255
255
255
255
255
255
255
255
255
255
255
255
255
255
255
255
255
255
255
255
255
255
255
255
255
255
255
255
255
255
255
255
255
255
255
255
255
255
255
255
255
255
255
255
255
255
255
255
255
255
255
255
255
255
255
255
255
255
255
255
255
255
255
255
255
255
255
255
255
255
255
255
255
255
255
255
255
255
255
255
255
255
255
255
255
255
255
255
255
255
255
255
255
255
255
255
255
255
255
255
255
255
255
255
255
255
255
255
255
255
255
255
