P2
# Created by GIMP version 2.10.30 PNM plug-in
30 30
255
255
255
255
255
255
255
255
255
255
255
255
255
255
255
255
255
255
255
255
255
255
255
255
255
255
255
255
255
255
255
255
255
255
255
255
255
255
255
255
255
255
255
255
255
255
255
255
255
255
255
255
255
255
255
255
255
255
255
255
255
255
255
255
255
255
255
255
255
255
255
255
255
255
255
255
255
255
255
255
255
255
255
255
255
255
255
255
255
255
255
255
255
255
255
255
255
255
255
255
255
255
255
255
255
255
255
255
255
255
255
255
255
255
255
255
255
255
255
255
255
255
255
255
255
255
255
255
255
255
255
255
255
255
255
255
255
255
255
255
255
255
255
255
255
255
255
255
255
255
255
255
255
255
255
255
255
255
255
255
255
255
255
255
188
62
43
15
57
43
232
255
255
255
255
255
255
255
255
255
255
255
255
255
255
255
255
255
255
255
255
255
255
122
43
0
38
89
33
15
6
112
188
255
255
255
255
255
255
255
255
255
255
255
255
255
255
255
255
255
255
232
100
0
0
255
255
255
255
210
137
62
0
255
255
255
255
255
255
255
255
255
255
255
255
255
255
255
255
255
255
110
0
170
255
255
255
255
255
255
255
170
12
62
255
255
255
255
255
255
255
255
255
255
255
255
255
255
255
255
154
0
188
255
255
255
255
255
255
255
255
255
154
0
110
255
255
255
255
255
255
255
255
255
255
255
255
255
255
255
25
56
255
255
255
255
255
255
255
255
255
255
255
43
62
232
255
255
255
255
255
255
255
255
255
255
255
255
255
232
0
210
255
255
255
255
255
255
255
255
255
255
255
99
62
232
255
255
255
255
255
255
255
255
255
255
255
255
255
91
2
255
255
255
255
255
255
255
255
255
255
255
255
170
25
232
255
255
255
255
255
255
255
255
255
255
255
255
255
44
29
255
255
255
254
255
255
255
255
252
255
255
255
170
25
232
255
255
255
255
255
255
255
255
255
255
255
255
255
80
8
255
255
255
255
255
255
255
255
255
255
252
255
110
49
232
255
255
255
255
255
255
255
255
255
255
255
255
255
63
18
255
255
255
255
255
255
255
255
255
255
255
255
0
71
188
255
255
255
255
255
255
255
255
255
255
255
255
255
210
0
170
255
255
255
255
255
255
255
255
255
255
232
33
89
255
255
255
255
255
255
255
255
255
255
255
255
255
255
255
0
80
255
255
255
255
255
255
255
255
254
255
124
8
255
255
255
255
255
255
255
255
255
255
255
255
255
255
255
255
71
0
188
255
255
255
255
255
255
255
250
255
0
89
255
255
255
255
255
255
255
255
255
255
255
255
255
255
255
255
255
0
34
137
255
255
255
255
255
255
255
44
0
255
255
255
255
255
255
255
255
255
255
255
255
255
255
255
255
255
255
232
56
0
55
232
232
232
170
112
0
0
255
255
255
255
255
255
255
255
255
255
255
255
255
255
255
255
255
255
255
255
255
170
0
0
62
79
29
25
124
255
255
255
255
255
255
255
255
255
255
255
255
255
255
255
255
255
255
255
255
255
255
255
255
79
124
88
99
232
255
255
255
255
255
255
255
255
255
255
255
255
255
255
255
255
255
255
255
255
255
255
255
255
255
255
255
255
255
255
255
255
255
255
255
255
255
255
255
255
255
255
255
255
255
255
255
255
255
255
255
255
255
255
255
255
255
255
255
255
255
255
255
255
255
255
255
255
255
255
255
255
255
255
255
255
255
255
255
255
255
255
255
255
255
255
255
255
255
255
255
255
255
255
255
255
255
255
255
255
255
255
255
255
255
255
255
255
255
255
255
255
255
255
255
255
255
255
255
255
255
255
255
255
255
255
255
255
255
255
255
255
255
255
255
255
255
255
255
255
255
255
255
255
255
255
255
255
255
255
255
255
255
255
255
255
255
255
255
255
255
255
255
255
255
255
255
255
255
255
255
255
255
255
255
255
255
255
255
255
255
255
255
255
255
255
255
255
255
255
255
255
255
255
255
255
255
255
255
255
255
255
255
255
255
255
255
255
255
255
255
255
255
255
255
255
255
255
255
255
255
