P2
# Created by GIMP version 2.10.30 PNM plug-in
30 30
255
255
255
255
255
255
255
255
255
255
255
255
255
255
255
255
255
255
255
255
255
255
255
255
255
255
255
255
255
255
255
255
255
255
255
255
255
255
255
255
255
255
255
255
255
255
255
255
255
255
255
255
255
255
255
255
255
255
255
255
255
255
255
255
255
255
255
255
255
255
255
255
255
255
255
255
255
255
255
255
255
255
255
255
255
255
255
255
255
255
255
255
255
255
255
255
255
255
255
255
255
255
255
255
210
124
99
99
232
255
255
255
255
255
255
255
255
255
255
255
255
255
255
255
255
255
255
255
255
255
255
255
255
170
12
25
62
62
33
55
255
255
255
255
255
255
255
255
255
255
255
255
255
255
255
255
255
255
255
255
255
255
0
0
188
232
230
210
79
33
210
255
255
255
255
255
255
255
255
255
255
255
255
255
255
255
255
255
255
255
255
88
0
154
255
255
255
255
255
0
43
255
255
255
255
255
255
255
255
255
255
255
255
255
255
255
255
255
255
255
232
43
99
255
255
255
255
255
255
173
10
255
255
255
255
255
255
255
255
255
255
255
255
255
255
255
255
255
255
255
235
0
232
255
255
255
255
255
255
255
0
211
255
255
255
255
255
255
255
255
255
255
255
255
255
255
255
255
255
255
252
235
255
255
255
255
255
255
255
255
43
124
255
255
255
255
255
255
255
255
255
255
255
255
255
255
255
255
255
255
255
255
255
255
255
255
255
255
255
255
49
71
255
255
255
255
255
255
255
255
255
255
255
255
255
255
255
255
255
255
255
255
255
255
255
255
255
255
255
255
71
71
255
255
255
255
255
255
255
255
255
255
255
255
255
255
255
255
255
255
255
255
255
255
255
255
255
255
255
255
0
99
255
255
255
255
255
255
255
255
255
255
255
255
255
255
255
255
255
255
255
255
255
255
254
255
255
255
255
252
62
89
255
255
255
255
255
255
255
255
255
255
255
255
255
255
255
255
255
255
255
255
255
255
255
255
255
255
255
255
0
185
255
255
255
255
255
255
255
255
255
255
255
255
255
255
255
255
255
255
255
188
88
0
29
188
255
255
255
124
33
232
255
255
255
255
255
255
255
255
255
255
255
255
255
255
255
255
255
255
188
50
0
137
44
0
0
255
255
0
56
255
255
255
255
255
255
255
255
255
255
255
255
255
255
255
255
255
255
255
15
80
255
255
255
88
21
0
0
0
231
255
255
255
255
255
255
255
255
255
255
255
255
255
255
255
255
255
255
232
0
232
255
255
255
255
122
3
0
0
250
255
255
255
255
255
255
255
255
255
255
255
255
255
255
255
255
255
255
255
0
79
255
255
255
255
88
8
0
188
255
255
255
255
255
0
255
255
255
255
255
255
255
255
255
255
255
255
255
255
90
38
62
170
89
29
0
50
0
18
191
255
255
255
232
43
232
255
255
255
255
255
255
255
255
255
255
255
255
255
188
137
0
0
62
90
0
255
255
0
12
0
124
90
0
21
255
255
255
255
255
255
255
255
255
255
255
255
255
255
255
255
255
255
255
255
255
255
255
255
232
154
0
43
0
255
255
255
255
255
255
255
255
255
255
255
255
255
255
255
255
255
255
255
255
255
255
255
255
255
255
255
255
255
255
255
255
255
255
255
255
255
255
255
255
255
255
255
255
255
255
255
255
255
255
255
255
255
255
255
255
255
255
255
255
255
255
255
255
255
255
255
255
255
255
255
255
255
255
255
255
255
255
255
255
255
255
255
255
255
255
255
255
255
255
255
255
255
255
255
255
255
255
255
255
255
255
255
255
255
255
255
255
255
255
255
255
255
255
255
255
255
255
255
255
255
255
255
255
255
255
255
255
255
255
255
255
255
255
255
255
255
255
255
255
255
255
255
255
255
255
255
255
255
255
255
255
255
255
255
255
255
255
255
255
255
255
255
255
255
255
255
255
255
255
255
255
255
255
255
255
255
255
255
255
255
255
255
255
255
255
255
255
255
255
255
255
255
255
255
255
255
255
255
255
255
255
255
255
255
255
255
255
255
255
255
255
255
255
255
255
