P2
# Created by GIMP version 2.10.30 PNM plug-in
30 30
255
255
255
255
255
255
255
255
255
255
255
255
255
255
255
255
255
255
255
255
255
255
255
255
255
255
255
255
255
255
255
255
255
255
255
255
255
255
255
255
255
255
255
255
255
255
255
255
255
255
255
255
255
255
255
255
255
255
255
255
255
255
255
255
255
255
255
255
255
255
255
255
255
188
255
255
255
255
255
255
255
255
255
255
255
255
255
255
255
255
255
255
255
255
255
255
255
255
255
255
255
255
0
170
0
0
56
62
232
255
255
255
255
255
255
255
255
255
255
255
255
255
255
255
255
255
255
255
255
255
255
137
0
0
137
170
124
0
0
122
255
255
255
255
255
255
255
255
255
255
255
255
255
255
255
255
255
255
255
255
188
0
137
255
255
255
253
255
123
33
188
255
255
255
255
255
255
255
255
255
255
255
255
255
255
255
255
255
255
255
0
88
232
255
255
255
255
255
255
56
0
255
255
255
255
255
255
255
255
255
255
255
255
255
255
255
255
255
255
221
96
255
255
255
255
255
255
255
255
80
15
255
255
255
255
255
255
255
255
255
255
255
255
255
255
255
255
255
255
244
203
255
255
255
255
255
255
255
255
210
21
232
255
255
255
255
255
255
255
255
255
255
255
255
255
255
255
255
255
255
255
255
255
255
255
255
255
255
255
210
38
188
255
255
255
255
255
255
255
255
255
255
255
255
255
255
255
255
255
255
255
255
255
255
255
255
255
255
255
124
43
188
255
255
255
255
255
255
255
255
255
255
255
255
255
255
255
255
255
255
255
255
255
255
255
255
255
255
137
0
88
188
255
255
255
255
255
255
255
255
255
255
255
255
255
255
255
255
255
255
255
255
255
255
255
255
255
188
63
38
88
255
255
255
255
255
255
255
255
255
255
255
255
255
255
255
255
255
255
255
255
255
255
255
254
55
0
1
89
185
188
255
255
255
255
255
255
255
255
255
255
255
255
255
255
255
255
255
255
255
255
255
255
255
255
210
0
13
79
188
255
252
255
255
255
255
255
255
255
255
255
255
255
255
255
255
255
255
255
255
255
255
255
255
255
255
255
188
38
71
255
255
255
255
255
255
255
255
255
255
255
255
255
255
255
255
255
255
255
255
255
255
255
255
255
255
255
255
89
0
255
255
255
255
255
255
255
255
255
255
255
255
255
255
255
255
255
255
255
255
255
255
255
255
255
255
255
255
232
0
169
255
255
255
255
255
255
255
255
255
255
255
255
255
255
255
255
255
255
255
255
255
255
255
255
255
255
255
255
88
0
255
255
255
255
255
255
255
255
255
255
255
255
255
255
255
255
255
255
255
122
232
255
255
255
255
255
255
255
99
0
255
255
255
255
255
255
255
255
255
255
255
255
255
255
255
255
255
255
255
0
210
255
255
255
255
255
255
255
137
99
188
255
255
255
255
255
255
255
255
255
255
255
255
255
255
255
255
255
255
25
154
255
255
255
255
255
255
255
124
43
255
255
255
255
255
255
255
255
255
255
255
255
255
255
255
255
255
255
255
50
33
255
255
255
255
255
255
255
56
56
255
255
255
255
255
255
255
255
255
255
255
255
255
255
255
255
255
255
255
170
5
188
255
255
255
255
255
110
0
188
255
255
255
255
255
255
255
255
255
255
255
255
255
255
255
255
255
255
255
255
50
38
154
232
232
232
170
0
0
255
255
255
255
255
255
255
255
255
255
255
255
255
255
255
255
255
255
255
255
255
232
33
15
0
0
0
0
79
170
255
255
255
255
255
255
255
255
255
255
255
255
255
255
255
255
255
255
255
255
255
255
255
137
122
0
0
137
188
255
255
255
255
255
255
255
255
255
255
255
255
255
255
255
255
255
255
255
255
255
255
255
255
255
255
255
255
255
255
255
255
255
255
255
255
255
255
255
255
255
255
255
255
255
255
255
255
255
255
255
255
255
255
255
255
255
255
255
255
255
255
255
255
255
255
255
255
255
255
255
255
255
255
255
255
255
255
255
255
255
255
255
255
255
255
255
255
255
255
255
255
255
255
255
255
255
255
255
255
255
255
