P2
# Created by GIMP version 2.10.30 PNM plug-in
30 30
255
255
255
255
255
255
255
255
255
255
255
255
255
255
255
255
255
255
255
255
255
255
255
255
255
255
255
255
255
255
255
255
255
255
255
255
255
255
255
255
255
255
255
255
255
255
255
255
255
255
255
255
255
255
255
255
255
255
255
255
255
255
255
255
255
255
255
255
255
255
255
255
255
255
255
255
255
255
255
255
255
255
255
255
255
255
255
255
255
255
255
255
255
255
255
255
255
255
255
255
255
255
255
255
255
255
255
255
255
255
255
255
255
255
255
255
255
255
255
255
255
255
255
255
255
255
255
255
255
255
255
255
255
255
255
255
255
255
255
255
255
255
255
255
255
255
255
255
255
255
255
255
255
255
255
255
255
255
255
255
203
116
232
255
255
255
253
255
254
255
255
255
255
255
255
255
255
255
255
255
255
255
255
255
255
255
255
255
255
255
122
0
255
255
255
255
255
255
255
254
255
55
210
255
255
255
255
255
255
255
255
255
255
255
255
255
255
255
255
255
0
0
255
255
255
255
255
255
255
255
232
1
140
255
255
255
255
255
255
255
255
255
255
255
255
255
255
255
255
170
10
34
255
255
255
255
255
255
255
255
188
0
170
255
255
255
255
255
255
255
255
255
255
255
255
255
255
255
255
25
0
170
255
255
255
255
255
255
255
255
50
1
210
255
255
255
255
255
255
255
255
255
255
255
255
255
255
255
188
25
6
188
255
255
255
255
255
255
255
255
33
0
232
255
255
255
255
255
255
255
255
255
255
255
255
255
255
255
232
0
44
255
255
255
255
255
255
255
255
188
22
6
255
255
255
255
255
255
255
255
255
255
255
255
255
255
255
255
89
0
80
255
255
255
255
255
255
255
255
232
0
50
255
255
255
255
255
255
255
255
255
255
255
255
255
255
255
232
0
0
255
255
255
255
254
255
255
255
255
98
0
49
255
255
255
255
255
255
255
255
255
255
255
255
255
255
255
255
0
21
232
232
191
191
191
191
191
210
124
0
4
122
255
255
255
255
255
255
255
255
255
255
255
255
255
255
255
255
88
0
0
0
2
1
0
0
0
0
0
0
0
124
255
255
255
255
255
255
255
255
255
255
255
255
255
255
255
255
122
170
188
188
170
124
112
124
79
79
56
79
0
101
255
255
255
255
255
255
255
255
255
255
255
255
255
255
255
255
255
255
255
255
255
255
255
255
255
255
255
255
0
101
255
255
255
255
255
255
255
255
255
255
255
255
255
255
255
255
255
255
255
255
255
255
255
255
255
255
255
232
0
101
255
255
255
255
255
255
255
255
255
255
255
255
255
255
255
255
255
255
255
255
255
255
255
255
255
255
255
232
0
63
255
255
255
255
255
255
255
255
255
255
255
255
255
255
255
255
255
255
255
255
255
255
255
255
255
255
255
232
0
63
255
255
255
255
255
255
255
255
255
255
255
255
255
255
255
255
255
255
255
255
255
255
255
255
255
255
255
232
0
44
255
255
255
255
255
255
255
255
255
255
255
255
255
255
255
255
255
255
255
255
255
255
255
255
255
255
255
210
2
63
255
255
255
255
255
255
255
255
255
255
255
255
255
255
255
255
255
255
255
255
255
255
255
255
255
255
255
232
8
63
255
255
255
255
255
255
255
255
255
255
255
255
255
255
255
255
255
255
255
255
255
255
255
255
255
255
255
255
0
89
255
255
255
255
255
255
255
255
255
255
255
255
255
255
255
255
255
255
255
255
255
255
255
255
255
255
255
255
0
188
255
255
255
255
255
255
255
255
255
255
255
255
255
255
255
255
255
255
255
255
255
255
255
255
255
255
255
255
255
255
255
255
255
255
255
255
255
255
255
255
255
255
255
255
255
255
255
255
255
255
255
255
255
255
255
255
255
255
255
255
255
255
255
255
255
255
255
255
255
255
255
255
255
255
255
255
255
255
255
255
255
255
255
255
255
255
255
255
255
255
255
255
255
255
255
255
255
255
255
255
255
255
255
255
255
255
255
255
255
255
255
255
255
255
255
255
255
255
255
255
255
255
255
255
255
255
255
255
255
