P2
# Created by GIMP version 2.10.30 PNM plug-in
30 30
255
255
255
255
255
255
255
255
255
255
255
255
255
255
255
255
255
255
255
255
255
255
255
255
255
255
255
255
255
255
255
255
255
255
255
255
255
255
255
255
255
255
255
255
255
255
255
255
255
255
255
255
255
255
255
255
255
255
255
255
255
255
255
255
255
255
255
255
255
255
255
255
255
255
255
255
255
255
255
255
255
255
255
255
255
255
255
255
255
255
255
255
255
255
255
255
255
255
255
255
255
255
255
255
255
255
255
255
255
255
255
255
255
255
255
255
255
255
255
255
255
255
255
255
255
255
255
255
255
255
255
232
210
173
72
63
44
15
0
0
0
255
255
255
255
255
255
255
255
255
255
255
255
255
255
255
255
255
255
122
0
0
0
0
3
25
4
0
89
170
255
255
255
255
255
255
255
255
255
255
255
255
255
255
255
255
255
255
255
0
39
154
232
255
255
255
255
255
255
254
255
255
255
255
255
255
255
255
255
255
255
255
255
255
255
255
255
255
255
0
8
255
255
255
255
255
255
255
255
255
255
255
255
255
255
255
255
255
255
255
255
255
255
255
255
255
255
255
255
0
8
255
255
255
255
255
255
255
255
255
255
255
255
255
255
255
255
255
255
255
255
255
255
255
255
255
255
255
255
0
29
255
255
255
255
255
255
232
232
255
255
255
255
255
255
255
255
255
255
255
255
255
255
255
255
255
255
255
232
0
89
255
232
71
15
0
0
0
21
29
137
255
255
255
255
255
255
255
255
255
255
255
255
255
255
255
255
255
255
0
57
89
0
71
80
232
210
232
210
80
0
188
255
255
255
255
255
255
255
255
255
255
255
255
255
255
255
255
255
0
8
29
188
255
255
255
255
255
255
255
0
0
255
255
255
255
255
255
255
255
255
255
255
255
255
255
255
255
255
0
154
255
255
255
254
255
255
255
255
252
170
38
232
255
255
255
255
255
255
255
255
255
255
255
255
255
255
255
255
255
255
255
255
255
255
255
255
255
255
255
255
0
89
188
255
255
255
255
255
255
255
255
255
255
255
255
255
255
255
255
255
255
255
255
255
255
255
255
255
255
255
38
0
188
255
255
255
255
255
255
255
255
255
255
255
255
255
255
255
255
255
255
255
255
255
255
255
255
255
255
255
29
29
232
255
255
255
255
255
255
255
255
255
255
255
255
255
255
255
255
255
255
255
255
255
255
255
255
255
255
254
6
0
255
255
255
255
255
255
255
255
255
255
255
255
255
255
255
255
255
255
255
255
255
255
255
255
255
255
255
250
38
34
255
255
255
255
255
255
255
255
255
255
255
255
255
255
255
255
255
255
255
255
255
255
255
255
255
255
255
188
62
56
255
255
255
255
255
255
255
255
255
255
255
255
255
255
255
255
255
255
255
255
255
255
255
255
255
255
88
34
0
255
255
255
255
255
255
255
255
255
255
255
255
255
255
255
255
255
210
49
255
255
255
255
255
255
232
170
0
0
188
255
255
255
255
255
255
255
255
255
255
255
255
255
255
255
255
255
232
0
0
188
255
232
173
89
0
0
99
188
255
255
255
255
255
255
255
255
255
255
255
255
255
255
255
255
255
255
255
188
6
34
0
0
5
0
71
124
255
255
255
255
255
255
255
255
255
255
255
255
255
255
255
255
255
255
255
255
255
255
232
124
191
188
255
255
255
255
255
255
255
255
255
255
255
255
255
255
255
255
255
255
255
255
255
255
255
255
255
255
255
255
255
255
255
255
255
255
255
255
255
255
255
255
255
255
255
255
255
255
255
255
255
255
255
255
255
255
255
255
255
255
255
255
255
255
255
255
255
255
255
255
255
255
255
255
255
255
255
255
255
255
255
255
255
255
255
255
255
255
255
255
255
255
255
255
255
255
255
255
255
255
255
255
255
255
255
255
255
255
255
255
255
255
255
255
255
255
255
255
255
255
255
255
255
255
255
255
255
255
255
255
255
255
255
255
255
255
255
255
255
255
255
255
255
255
255
255
255
255
255
255
255
255
255
255
255
255
255
255
255
255
255
255
255
255
255
255
255
255
