P2
# Created by GIMP version 2.10.30 PNM plug-in
30 30
255
255
255
255
255
255
255
255
255
255
255
255
255
255
255
255
255
255
255
255
255
255
255
255
255
255
255
255
255
255
255
255
255
255
255
255
255
255
255
255
255
255
255
255
255
255
255
255
255
255
255
255
255
255
255
255
255
255
255
255
255
255
255
255
255
255
255
255
255
255
255
255
255
255
255
255
255
255
255
255
255
255
255
255
255
255
255
255
255
255
255
255
255
255
255
255
255
255
255
255
255
255
255
255
255
255
255
255
255
255
255
255
255
255
255
255
255
255
255
255
255
255
255
255
255
255
255
255
255
255
255
255
232
232
232
210
232
232
232
255
255
255
255
255
255
255
255
255
255
255
255
255
255
255
255
255
255
255
255
255
255
170
55
0
0
0
0
21
37
62
54
0
255
255
255
255
255
255
255
255
255
255
255
255
255
255
255
255
255
255
255
49
71
255
255
255
232
210
170
123
108
225
255
255
255
255
255
255
255
255
255
255
255
255
255
255
255
255
255
255
255
25
112
255
255
255
255
255
255
255
255
255
255
255
255
255
255
255
255
255
255
255
255
255
255
255
255
255
255
255
255
0
232
255
255
255
255
255
255
255
255
255
255
255
255
255
255
255
255
255
255
255
255
255
255
255
255
255
255
255
173
21
255
255
255
255
255
255
255
255
255
255
255
255
255
255
255
255
255
255
255
255
255
255
255
255
255
255
255
255
0
137
255
232
188
170
124
154
170
232
255
255
255
255
255
255
255
255
255
255
255
255
255
255
255
255
255
255
255
255
25
91
56
0
0
0
62
38
38
0
88
255
255
255
255
255
255
255
255
255
255
255
255
255
255
255
255
255
255
232
0
25
0
232
232
255
255
255
232
56
18
79
255
255
255
255
255
255
255
255
255
255
255
255
255
255
255
255
255
170
21
88
255
255
254
255
255
255
255
252
110
0
255
255
255
255
255
255
255
255
255
255
255
255
255
255
255
255
255
255
255
255
255
255
255
255
255
255
255
255
255
0
170
255
255
255
255
255
255
255
255
255
255
255
255
255
255
255
255
255
255
255
255
255
255
255
255
255
255
255
255
21
80
255
255
255
255
255
255
255
255
255
255
255
255
255
255
255
255
255
255
255
255
255
255
255
255
255
255
255
255
8
57
255
255
255
255
255
255
255
255
255
255
255
255
255
255
255
255
255
255
255
255
255
255
255
255
255
255
255
254
8
22
255
255
255
255
255
255
255
255
255
255
255
255
255
255
255
255
232
122
255
255
255
255
255
255
255
255
255
227
21
124
255
255
255
255
255
255
255
255
255
255
255
255
255
255
255
255
188
0
255
255
255
255
255
255
255
255
255
88
0
232
255
255
255
255
255
255
255
255
255
255
255
255
255
255
255
255
188
0
188
255
255
255
255
255
255
255
232
0
188
255
255
255
255
255
255
255
255
255
255
255
255
255
255
255
255
255
255
21
56
255
255
255
255
255
255
170
21
57
255
255
255
255
255
255
255
255
255
255
255
255
255
255
255
255
255
255
255
124
29
38
173
210
210
137
0
21
38
255
255
255
255
255
255
255
255
255
255
255
255
255
255
255
255
255
255
255
255
255
154
25
21
0
0
0
38
210
255
255
255
255
255
255
255
255
255
255
255
255
255
255
255
255
255
255
255
255
255
255
255
255
255
255
255
255
255
255
255
255
255
255
255
255
255
255
255
255
255
255
255
255
255
255
255
255
255
255
255
255
255
255
255
255
255
255
255
255
255
255
255
255
255
255
255
255
255
255
255
255
255
255
255
255
255
255
255
255
255
255
255
255
255
255
255
255
255
255
255
255
255
255
255
255
255
255
255
255
255
255
255
255
255
255
255
255
255
255
255
255
255
255
255
255
255
255
255
255
255
255
255
255
255
255
255
255
255
255
255
255
255
255
255
255
255
255
255
255
255
255
255
255
255
255
255
255
255
255
255
255
255
255
255
255
255
255
255
255
255
255
255
255
255
255
255
255
255
255
255
255
255
255
255
255
255
255
255
255
255
255
255
255
255
255
255
255
255
255
255
255
