P2
# Created by GIMP version 2.10.30 PNM plug-in
30 30
255
255
255
255
255
255
255
255
255
255
255
255
255
255
255
255
255
255
255
255
255
255
255
255
255
255
255
255
255
255
255
255
255
255
255
255
255
255
255
255
255
255
255
255
255
255
255
255
255
255
255
255
255
255
255
255
255
255
255
255
255
255
255
255
255
255
255
255
255
255
255
255
255
255
255
255
255
255
255
255
255
255
255
255
255
255
255
255
255
255
255
255
255
255
255
255
255
255
255
255
255
255
255
255
255
255
255
255
179
203
255
255
255
255
255
255
255
255
255
255
255
255
255
255
255
255
255
255
255
255
255
255
255
255
255
255
255
137
0
203
255
255
255
255
255
255
255
255
255
255
255
255
255
255
255
255
255
255
255
255
255
255
255
255
255
255
186
0
136
255
255
255
255
255
255
255
255
255
255
255
255
255
255
255
255
255
255
255
255
255
255
255
255
255
255
255
0
63
255
254
255
255
255
255
255
255
255
255
255
255
255
255
255
255
255
255
255
255
255
255
255
255
255
255
232
10
3
255
255
255
255
255
255
255
255
255
255
255
255
255
255
255
255
255
255
255
255
255
255
255
255
255
255
255
21
0
137
255
255
255
255
255
255
255
255
255
255
255
255
255
255
255
255
255
255
255
255
255
255
255
255
255
255
170
0
0
255
255
255
255
255
255
255
255
255
255
255
255
255
255
255
255
255
255
255
255
255
255
255
255
255
255
255
0
21
170
255
255
255
255
255
255
255
255
255
255
255
255
255
255
255
255
255
255
255
255
255
255
255
255
255
255
154
12
88
255
255
255
255
255
255
255
255
255
255
255
255
255
255
255
255
255
255
255
255
255
255
255
255
255
255
255
88
0
232
255
255
255
255
255
255
255
255
255
255
255
255
255
255
255
255
255
255
255
255
255
255
255
255
255
255
232
0
0
254
255
255
255
255
252
255
255
255
255
255
255
255
255
255
255
255
255
255
255
255
255
255
255
255
255
255
170
0
99
255
232
232
210
232
255
255
252
255
255
255
255
255
255
255
255
255
255
255
255
255
255
255
255
255
255
255
89
0
232
122
62
12
2
0
0
188
255
255
255
255
255
255
255
255
255
255
255
255
255
255
255
255
255
255
255
255
25
0
188
0
0
21
110
188
124
0
232
255
255
255
255
255
255
255
255
255
255
255
255
255
255
255
255
255
255
255
0
8
0
8
44
232
255
255
232
62
62
232
255
255
255
255
255
255
255
255
255
255
255
255
255
255
255
255
255
232
33
0
18
55
255
255
255
255
255
86
0
188
255
255
255
255
255
255
255
255
255
255
255
255
255
255
255
255
255
232
2
15
79
255
255
255
255
255
255
188
0
112
255
255
255
255
255
255
255
255
255
255
255
255
255
255
255
255
255
232
0
89
255
255
255
255
255
255
255
232
0
154
255
255
255
255
255
255
255
255
255
255
255
255
255
255
255
255
255
255
0
44
255
255
255
255
255
255
255
232
21
0
255
255
255
255
255
255
255
255
255
255
255
255
255
255
255
255
255
210
5
56
255
255
255
255
255
255
255
255
0
170
255
255
255
255
255
255
255
255
255
255
255
255
255
255
255
255
255
232
79
49
79
232
255
255
255
255
255
112
1
210
255
255
255
255
255
255
255
255
255
255
255
255
255
255
255
255
255
232
88
43
57
12
232
255
232
232
21
0
21
255
255
255
255
255
255
255
255
255
255
255
255
255
255
255
255
255
255
255
255
0
38
2
0
0
38
18
10
79
255
255
255
255
255
255
255
255
255
255
255
255
255
255
255
255
255
255
255
255
255
255
232
71
124
124
124
154
232
255
255
255
255
255
255
255
255
255
255
255
255
255
255
255
255
255
255
255
255
255
255
255
255
255
255
255
255
255
255
255
255
255
255
255
255
255
255
255
255
255
255
255
255
255
255
255
255
255
255
255
255
255
255
255
255
255
255
255
255
255
255
255
255
255
255
255
255
255
255
255
255
255
255
255
255
255
255
255
255
255
255
255
255
255
255
255
255
255
255
255
255
255
255
255
255
255
255
255
255
255
