P2
# Created by GIMP version 2.10.30 PNM plug-in
30 30
255
255
255
255
255
255
255
255
255
255
255
255
255
255
255
255
255
255
255
255
255
255
255
255
255
255
255
255
255
255
255
255
255
255
255
255
255
255
255
255
255
255
255
255
255
255
255
255
255
255
255
255
255
255
255
255
255
255
255
255
255
255
255
255
255
255
255
255
255
255
255
255
255
255
255
255
255
255
255
255
255
255
255
255
255
255
255
255
255
255
255
255
255
255
255
255
255
255
255
255
255
255
255
255
255
255
255
255
255
255
255
255
255
255
255
255
255
255
255
255
255
255
255
255
255
255
255
255
255
255
255
255
255
255
255
255
255
255
255
255
255
255
255
255
255
255
255
255
255
255
255
255
255
255
255
255
255
255
255
255
255
255
255
255
120
120
253
255
254
255
255
255
255
255
255
255
255
255
255
255
255
255
255
255
255
255
255
255
255
255
255
255
188
0
32
120
255
255
255
254
255
255
255
255
255
255
255
255
255
255
255
255
255
255
255
255
255
255
255
255
255
154
29
99
232
255
255
255
255
255
255
255
255
255
255
255
255
255
255
255
255
255
255
255
255
255
255
255
255
255
188
0
0
255
255
255
255
255
255
255
255
255
255
255
255
255
255
255
255
255
255
255
255
255
255
255
255
255
255
154
0
79
255
255
255
255
255
255
255
255
255
255
255
255
255
255
255
255
255
255
255
255
255
255
255
255
255
255
232
1
0
255
255
255
255
255
255
255
255
255
255
255
255
255
255
255
255
255
255
255
255
255
255
255
255
255
255
255
34
0
255
255
255
255
255
255
255
255
255
255
255
255
255
255
255
255
255
255
255
255
255
255
255
255
255
255
255
232
38
43
255
255
255
255
255
255
255
255
255
255
255
255
255
255
255
255
255
255
255
255
255
255
255
255
255
255
255
110
0
232
255
255
255
255
231
210
191
232
255
252
255
255
255
255
255
255
255
255
255
255
255
255
255
255
255
255
232
44
21
255
255
100
33
0
0
0
0
38
0
188
255
252
255
255
255
255
255
255
255
255
255
255
255
255
255
255
255
0
0
232
71
0
0
232
255
255
255
170
10
34
0
255
255
255
255
255
255
255
255
255
255
255
255
255
255
255
137
50
49
0
10
122
255
255
255
255
255
255
255
170
0
0
255
255
255
255
255
255
255
255
255
255
255
255
255
255
188
0
38
0
255
255
255
255
255
255
255
255
255
255
254
25
71
255
255
255
255
255
255
255
255
255
255
255
255
255
232
33
38
0
255
255
255
255
255
255
255
255
255
255
250
63
38
255
255
255
255
255
255
255
255
255
255
255
255
255
232
55
0
170
255
255
255
255
255
255
255
255
255
255
255
154
0
255
255
255
255
255
255
255
255
255
255
255
255
255
232
55
29
154
255
255
255
255
255
255
255
255
255
255
255
89
0
255
255
255
255
255
255
255
255
255
255
255
255
255
255
43
1
191
255
255
255
255
255
255
255
255
255
255
232
43
0
255
255
255
255
255
255
255
255
255
255
255
255
255
255
137
0
71
255
255
255
255
255
255
255
255
255
255
188
0
191
255
255
255
255
255
255
255
255
255
255
255
255
255
255
255
88
0
71
170
255
255
255
255
255
255
255
71
0
122
255
255
255
255
255
255
255
255
255
255
255
255
255
255
255
255
255
170
0
0
2
44
154
210
188
170
0
25
112
255
255
255
255
255
255
255
255
255
255
255
255
255
255
255
255
255
255
255
255
232
30
15
38
0
0
0
43
232
255
255
255
255
255
255
255
255
255
255
255
255
255
255
255
255
255
255
255
255
255
255
255
255
255
255
255
255
255
255
255
255
255
255
255
255
255
255
255
255
255
255
255
255
255
255
255
255
255
255
255
255
255
255
255
255
255
255
255
255
255
255
255
255
255
255
255
255
255
255
255
255
255
255
255
255
255
255
255
255
255
255
255
255
255
255
255
255
255
255
255
255
255
255
255
255
255
255
255
255
255
255
255
255
255
255
255
255
255
255
255
255
255
255
255
255
255
255
255
255
255
255
255
255
255
255
255
255
255
255
255
