P2
# Created by GIMP version 2.10.30 PNM plug-in
30 30
255
255
255
255
255
255
255
255
255
255
255
255
255
255
255
255
255
255
255
255
255
255
255
255
255
255
255
255
255
255
255
255
255
255
255
255
255
255
255
255
255
255
255
255
255
255
255
255
255
255
255
255
255
255
255
255
255
255
255
255
255
255
255
255
255
255
255
255
255
255
255
255
255
255
255
255
255
255
255
255
255
255
255
255
255
255
255
255
255
255
255
255
255
255
255
255
255
255
255
255
255
255
255
255
255
255
255
255
255
255
255
255
255
255
255
255
255
255
255
255
255
255
255
255
255
255
255
255
255
255
255
255
255
255
255
255
232
79
170
255
255
255
255
255
255
255
255
255
255
255
255
255
255
255
255
255
255
255
255
255
255
255
255
255
232
22
0
0
62
255
255
255
255
255
255
255
255
255
255
255
255
255
255
255
255
255
255
255
255
255
255
255
255
255
25
2
101
255
232
254
255
255
255
255
255
255
255
255
255
255
255
255
255
255
255
255
255
255
255
255
255
255
188
0
50
124
255
255
255
255
255
255
255
255
255
255
255
255
255
255
255
255
255
255
255
255
255
255
255
255
255
255
99
38
210
255
255
255
255
255
255
255
255
255
255
255
255
255
255
255
255
255
255
255
255
255
255
255
255
255
232
88
99
188
255
255
255
255
255
255
255
255
255
255
255
255
255
255
255
255
255
255
255
255
255
255
255
255
255
255
62
63
99
255
255
255
255
255
255
255
255
255
255
255
255
255
255
255
255
255
255
255
255
255
255
255
255
255
255
232
0
79
232
255
255
255
255
255
255
255
255
255
255
255
255
255
255
255
255
255
255
255
255
255
255
255
255
255
255
71
19
88
255
255
255
255
232
232
170
232
255
255
255
255
255
255
255
255
255
255
255
255
255
255
255
255
255
255
255
44
10
188
255
255
169
0
38
0
0
24
255
255
255
255
255
255
255
255
255
255
255
255
255
255
255
255
255
255
255
33
29
232
255
137
0
38
170
232
188
99
0
121
232
255
255
255
255
255
255
255
255
255
255
255
255
255
255
255
255
33
71
255
255
0
137
255
255
255
255
255
79
0
122
255
255
255
255
255
255
255
255
255
255
255
255
255
255
255
255
71
99
255
0
56
255
255
255
255
255
255
255
0
0
255
255
255
255
255
255
255
255
255
255
255
255
255
255
255
255
124
0
188
0
232
255
255
255
255
255
255
254
188
0
232
255
255
255
255
255
255
255
255
255
255
255
255
255
255
255
210
0
18
63
255
255
255
255
255
255
255
250
188
43
112
255
255
255
255
255
255
255
255
255
255
255
255
255
255
255
255
0
38
188
255
255
255
255
255
255
255
255
137
0
43
255
255
255
255
255
255
255
255
255
255
255
255
255
255
255
255
188
0
210
255
255
255
255
255
255
255
255
110
4
191
255
255
255
255
255
255
255
255
255
255
255
255
255
255
255
255
255
0
1
232
255
255
255
255
255
255
122
0
0
255
255
255
255
255
255
255
255
255
255
255
255
255
255
255
255
255
255
255
89
25
89
232
255
255
232
122
34
63
137
255
255
255
255
255
255
255
255
255
255
255
255
255
255
255
255
255
255
255
255
124
15
0
0
0
25
0
62
137
255
255
255
255
255
255
255
255
255
255
255
255
255
255
255
255
255
255
255
255
255
255
255
137
170
170
124
188
255
255
255
255
255
255
255
255
255
255
255
255
255
255
255
255
255
255
255
255
255
255
255
255
255
255
255
255
255
255
255
255
255
255
255
255
255
255
255
255
255
255
255
255
255
255
255
255
255
255
255
255
255
255
255
255
255
255
255
255
255
255
255
255
255
255
255
255
255
255
255
255
255
255
255
255
255
255
255
255
255
255
255
255
255
255
255
255
255
255
255
255
255
255
255
255
255
255
255
255
255
255
255
255
255
255
255
255
255
255
255
255
255
255
255
255
255
255
255
255
255
255
255
255
255
255
255
255
255
255
255
255
255
255
255
255
255
255
255
255
255
255
255
255
255
255
255
255
255
255
255
255
255
255
255
255
255
255
255
255
255
