P2
# Created by GIMP version 2.10.30 PNM plug-in
30 30
255
255
255
255
255
255
255
255
255
255
255
255
255
255
255
255
255
255
255
255
255
255
255
255
255
255
255
255
255
255
255
255
255
255
255
255
255
255
255
255
255
255
255
255
255
255
255
255
255
255
255
255
255
255
255
255
255
255
255
255
255
255
255
255
255
255
255
255
255
255
255
255
255
255
255
255
255
255
255
255
255
255
255
255
255
255
255
255
255
255
255
255
255
255
255
255
255
255
255
255
255
255
232
210
232
255
255
255
255
255
255
255
255
255
255
255
255
255
255
255
255
255
255
255
255
255
255
255
255
255
232
55
0
21
0
0
0
53
213
255
255
255
255
255
255
255
255
255
255
255
255
255
255
255
255
255
255
255
255
255
43
0
110
232
232
232
123
0
0
124
255
255
255
255
255
255
255
255
255
255
255
255
255
255
255
255
255
255
255
255
0
188
255
255
255
255
255
232
137
0
62
255
255
255
255
255
255
255
255
255
255
255
255
255
255
255
255
255
255
188
0
232
255
255
255
255
255
255
255
232
0
170
255
255
255
255
255
255
255
255
255
255
255
255
255
255
255
255
255
170
0
232
255
255
255
255
255
255
255
255
0
188
255
255
255
255
255
255
255
255
255
255
255
255
255
255
255
255
255
255
0
56
232
255
255
255
255
255
255
210
25
188
255
255
255
255
255
255
255
255
255
255
255
255
255
255
255
255
255
255
188
0
88
188
255
255
255
255
255
137
0
255
255
255
255
255
255
255
255
255
255
255
255
255
255
255
255
255
255
255
255
188
0
0
0
255
255
255
255
62
112
255
255
255
255
255
255
255
255
255
255
255
255
255
255
255
255
255
255
255
255
255
255
124
43
0
99
255
0
29
188
255
255
255
255
255
255
255
255
255
255
255
255
255
255
255
255
255
255
255
255
255
255
255
254
50
89
44
0
135
255
255
255
255
255
255
255
255
255
255
255
255
255
255
255
255
255
255
255
255
255
255
255
255
255
232
50
0
13
255
255
252
255
255
255
255
255
255
255
255
255
255
255
255
255
255
255
255
255
255
255
255
255
232
64
34
0
71
12
154
255
255
255
255
255
255
255
255
255
255
255
255
255
255
255
255
255
255
255
255
255
255
101
8
21
88
188
255
62
15
137
255
255
255
255
255
255
255
255
255
255
255
255
255
255
255
255
255
255
255
122
0
12
137
255
255
255
255
255
0
0
255
255
255
255
255
255
255
255
255
255
255
255
255
255
255
255
255
255
188
62
0
232
255
255
255
255
255
255
188
0
0
255
255
255
255
255
255
255
255
255
255
255
255
255
255
255
255
255
188
0
232
255
255
255
255
255
255
255
255
0
79
255
255
255
255
255
255
255
255
255
255
255
255
255
255
255
255
255
0
0
188
255
255
255
255
255
255
255
255
62
0
255
255
255
255
255
255
255
255
255
255
255
255
255
255
255
255
255
255
56
0
122
255
255
255
255
255
255
255
38
56
255
255
255
255
255
255
255
255
255
255
255
255
255
255
255
255
255
255
255
49
38
0
255
188
255
255
232
56
38
170
255
255
255
255
255
255
255
255
255
255
255
255
255
255
255
255
255
255
255
255
154
15
0
38
21
0
0
0
137
255
255
255
255
255
255
255
255
255
255
255
255
255
255
255
255
255
255
255
255
255
255
255
232
210
191
210
255
255
255
255
255
255
255
255
255
255
255
255
255
255
255
255
255
255
255
255
255
255
255
255
255
255
255
255
255
255
255
255
255
255
255
255
255
255
255
255
255
255
255
255
255
255
255
255
255
255
255
255
255
255
255
255
255
255
255
255
255
255
255
255
255
255
255
255
255
255
255
255
255
255
255
255
255
255
255
255
255
255
255
255
255
255
255
255
255
255
255
255
255
255
255
255
255
255
255
255
255
255
255
255
255
255
255
255
255
255
255
255
255
255
255
255
255
255
255
255
255
255
255
255
255
255
255
255
255
255
255
255
255
255
255
255
255
255
255
255
255
255
255
255
255
255
255
255
255
255
255
255
255
255
255
255
255
255
255
255
255
255
255
