P2
# Created by GIMP version 2.10.30 PNM plug-in
30 30
255
255
255
255
255
255
255
255
255
255
255
255
255
255
255
255
255
255
255
255
255
255
255
255
255
255
255
255
255
255
255
255
255
255
255
255
255
255
255
255
255
255
255
255
255
255
255
255
255
255
255
255
255
255
255
255
255
255
255
255
255
255
255
255
255
255
255
255
255
255
255
255
255
255
255
255
255
255
255
255
255
255
255
255
255
255
255
255
255
255
255
255
255
255
255
255
255
255
255
255
255
255
255
255
255
255
255
255
255
255
255
255
255
255
255
255
255
255
255
255
255
255
255
255
255
255
255
255
255
255
255
255
255
255
255
255
255
255
255
255
255
255
255
255
255
255
255
255
255
255
255
255
255
255
255
255
255
255
255
255
255
255
255
255
255
255
253
255
254
255
255
255
255
255
255
255
255
255
255
255
255
255
255
255
255
255
255
255
255
255
255
255
255
255
255
255
255
255
255
254
255
255
255
255
255
255
255
255
255
255
255
255
255
255
255
255
255
255
255
255
255
255
255
188
43
0
0
0
255
255
255
255
255
255
255
255
255
255
255
255
255
255
255
255
255
255
255
255
255
255
255
255
170
0
63
124
79
110
88
188
255
255
255
255
255
255
255
255
255
255
255
255
255
255
255
255
255
255
255
255
255
232
15
56
232
255
255
255
79
25
232
255
255
255
255
255
255
255
255
255
255
255
255
255
255
255
255
255
255
255
255
99
71
188
255
255
255
255
232
0
188
255
255
255
255
255
255
255
255
255
255
255
255
255
255
255
255
255
255
255
255
88
0
255
255
255
255
255
255
124
62
255
255
255
255
255
255
255
255
255
255
255
255
255
255
255
255
255
255
255
255
170
25
232
255
255
255
255
255
137
137
255
255
255
255
255
255
255
255
255
255
255
255
255
255
255
255
255
255
255
255
137
0
137
254
255
255
255
255
24
112
255
255
255
255
255
255
255
255
255
255
255
255
255
255
255
255
255
255
255
255
232
88
99
122
232
232
232
0
0
255
252
255
255
255
255
255
255
255
255
255
255
255
255
255
255
255
255
255
255
255
255
122
0
0
3
28
0
89
188
255
255
255
255
255
255
255
255
255
255
255
255
255
255
255
255
255
255
255
255
255
255
255
0
18
80
61
105
0
62
188
255
255
255
255
255
255
255
255
255
255
255
255
255
255
255
255
255
255
255
255
255
0
43
188
0
232
232
255
154
0
122
255
255
255
255
255
255
255
255
255
255
255
255
255
255
255
255
255
255
255
112
21
110
232
255
255
255
255
255
0
122
232
255
255
255
255
255
255
255
255
255
255
255
255
255
255
255
255
255
210
25
110
232
255
255
255
255
255
255
170
88
188
255
255
255
255
255
255
255
255
255
255
255
255
255
255
255
255
255
188
43
124
255
255
255
255
255
255
255
255
55
210
255
255
255
255
255
255
255
255
255
255
255
255
255
255
255
255
255
232
38
89
255
255
255
255
255
255
255
232
18
210
255
255
255
255
255
255
255
255
255
255
255
255
255
255
255
255
255
255
99
49
232
255
255
255
255
255
255
154
6
255
255
255
255
255
255
255
255
255
255
255
255
255
255
255
255
255
255
255
188
12
25
137
255
255
255
255
232
25
89
255
255
255
255
255
255
255
255
255
255
255
255
255
255
255
255
255
255
255
255
0
56
49
0
33
56
43
25
0
255
255
255
255
255
255
255
255
255
255
255
255
255
255
255
255
255
255
255
255
255
255
255
137
88
71
79
124
124
255
255
255
255
255
255
255
255
255
255
255
255
255
255
255
255
255
255
255
255
255
255
255
255
255
232
255
255
255
255
255
255
255
255
255
255
255
255
255
255
255
255
255
255
255
255
255
255
255
255
255
255
255
255
255
255
255
255
255
255
255
255
255
255
255
255
255
255
255
255
255
255
255
255
255
255
255
255
255
255
255
255
255
255
255
255
255
255
255
255
255
255
255
255
255
255
255
255
255
255
255
255
255
255
255
255
255
255
255
255
255
255
255
255
255
255
255
255
255
255
255
255
255
255
255
255
255
255
255
255
255
