P2
# Created by GIMP version 2.10.30 PNM plug-in
30 30
255
255
255
255
255
255
255
255
255
255
255
255
255
255
255
255
255
255
255
255
255
255
255
255
255
255
255
255
255
255
255
255
255
255
255
255
255
255
255
255
255
255
255
255
255
255
255
255
255
255
255
255
255
255
255
255
255
255
255
255
255
255
255
255
255
255
255
255
255
255
255
255
255
255
255
255
255
255
255
255
255
255
255
255
255
255
255
255
255
255
255
255
255
255
255
255
255
255
255
255
255
255
255
255
255
255
255
255
255
255
255
255
255
255
255
255
255
255
255
255
255
255
255
255
255
255
255
255
255
255
255
255
255
255
255
255
255
255
255
255
255
255
255
255
255
255
255
255
255
255
255
255
255
255
255
255
255
255
255
255
255
255
255
255
255
255
253
255
254
255
255
255
255
255
255
255
255
255
255
255
255
255
255
255
255
255
255
255
255
255
255
255
255
255
255
255
255
255
255
254
255
255
255
255
255
255
255
255
255
255
255
255
255
255
255
255
255
255
255
255
255
255
232
89
29
38
55
0
137
188
255
255
255
255
255
255
255
255
255
255
255
255
255
255
255
255
255
255
255
255
255
255
0
25
15
38
24
54
0
0
43
188
255
255
255
255
255
255
255
255
255
255
255
255
255
255
255
255
255
255
255
170
10
210
255
255
255
255
255
188
0
0
110
255
255
255
255
255
255
255
255
255
255
255
255
255
255
255
255
255
255
137
0
88
255
255
255
255
255
255
255
0
88
255
255
255
255
255
255
255
255
255
255
255
255
255
255
255
255
255
255
122
80
56
0
137
232
255
255
255
255
38
71
255
255
255
255
255
255
255
255
255
255
255
255
255
255
255
255
255
255
255
137
0
0
29
33
170
255
232
0
0
170
255
255
255
255
255
255
255
255
255
255
255
255
255
255
255
255
255
255
255
170
255
190
39
22
0
0
33
25
170
255
255
255
255
255
255
255
255
255
255
255
255
255
255
255
255
255
255
170
0
38
0
21
43
62
38
26
56
232
252
255
255
255
255
255
255
255
255
255
255
255
255
255
255
255
255
255
170
25
0
232
255
255
255
255
255
0
25
170
255
255
255
255
255
255
255
255
255
255
255
255
255
255
255
255
255
255
79
0
255
255
255
255
255
255
255
188
71
71
255
255
255
255
255
255
255
255
255
255
255
255
255
255
255
255
255
255
62
62
232
255
255
255
255
255
255
255
137
15
232
255
255
255
255
255
255
255
255
255
255
255
255
255
255
255
255
255
170
0
232
255
255
255
255
255
255
255
0
69
188
255
255
255
255
255
255
255
255
255
255
255
255
255
255
255
255
255
255
0
0
210
255
255
255
255
255
255
89
99
188
255
255
255
255
255
255
255
255
255
255
255
255
255
255
255
255
255
255
255
62
0
0
51
112
63
38
33
21
88
255
255
255
255
255
255
255
255
255
255
255
255
255
255
255
255
255
255
255
255
255
188
63
8
0
0
12
140
122
255
255
255
255
255
255
255
255
255
255
255
255
255
255
255
255
255
255
255
255
255
255
255
255
255
255
255
255
255
255
255
255
255
255
255
255
255
255
255
255
255
255
255
255
255
255
255
255
255
255
255
255
255
255
255
255
255
255
255
255
255
255
255
255
255
255
255
255
255
255
255
255
255
255
255
255
255
255
255
255
255
255
255
255
255
255
255
255
255
255
255
255
255
255
255
255
255
255
255
255
255
255
255
255
255
255
255
255
255
255
255
255
255
255
255
255
255
255
255
255
255
255
255
255
255
255
255
255
255
255
255
255
255
255
255
255
255
255
255
255
255
255
255
255
255
255
255
255
255
255
255
255
255
255
255
255
255
255
255
255
255
255
255
255
255
255
255
255
255
255
255
255
255
255
255
255
255
255
255
255
255
255
255
255
255
255
255
255
255
255
255
255
255
255
255
255
255
255
255
255
255
255
255
255
255
255
255
255
255
255
255
255
255
255
255
255
255
255
255
255
255
255
255
255
255
255
255
255
255
255
255
255
255
255
255
255
255
255
255
255
255
255
255
255
255
255
255
255
255
255
255
