P2
# Created by GIMP version 2.10.30 PNM plug-in
30 30
255
255
255
255
255
255
255
255
255
255
255
255
255
255
255
255
255
255
255
255
255
255
255
255
255
255
255
255
255
255
255
255
255
255
255
255
255
255
255
255
255
255
255
255
255
255
255
255
255
255
255
255
255
255
255
255
255
255
255
255
255
255
255
255
255
255
255
255
255
255
255
255
255
255
255
255
255
255
255
255
255
255
255
255
255
255
255
255
255
255
255
255
255
255
255
255
255
255
255
255
255
255
255
255
255
255
255
255
255
255
255
255
255
255
255
255
255
255
255
255
255
255
255
255
255
255
255
255
255
255
255
255
255
255
255
255
255
255
255
255
255
255
255
255
255
255
255
255
255
255
255
255
255
255
255
255
255
255
255
255
255
255
255
255
255
255
253
255
254
255
255
255
255
255
255
255
255
255
255
255
255
255
255
255
255
255
255
255
255
255
255
255
255
255
154
124
124
0
210
254
255
255
255
255
255
255
255
255
255
255
255
255
255
255
255
255
255
255
255
255
255
255
99
0
15
29
32
0
0
25
71
255
255
255
255
255
255
255
255
255
255
255
255
255
255
255
255
255
255
255
255
0
0
71
188
188
149
244
255
99
0
38
255
255
255
255
255
255
255
255
255
255
255
255
255
255
255
255
255
255
0
0
137
255
255
255
255
255
255
255
232
38
154
255
255
255
255
255
255
255
255
255
255
255
255
255
255
255
255
255
137
6
25
255
255
255
255
255
255
255
255
38
154
255
255
255
255
255
255
255
255
255
255
255
255
255
255
255
255
255
188
137
0
56
255
255
255
255
255
255
154
21
255
255
255
255
255
255
255
255
255
255
255
255
255
255
255
255
255
255
255
255
0
12
12
232
255
255
255
255
18
18
255
255
255
255
255
255
255
255
255
255
255
255
255
255
255
255
255
255
255
255
255
191
3
0
43
99
170
0
38
232
255
255
255
255
255
255
255
255
255
255
255
255
255
255
255
255
255
255
255
255
255
255
255
50
7
1
0
0
255
252
255
255
255
255
255
255
255
255
255
255
255
255
255
255
255
255
255
255
255
255
255
50
25
0
0
0
0
21
0
255
255
255
255
255
255
255
255
255
255
255
255
255
255
255
255
255
255
255
255
170
0
25
89
255
255
255
170
89
34
0
255
255
255
255
255
255
255
255
255
255
255
255
255
255
255
255
255
232
88
43
56
255
255
255
255
255
255
255
70
6
79
255
255
255
255
255
255
255
255
255
255
255
255
255
255
255
255
232
38
0
255
255
255
255
255
255
255
255
227
0
100
232
255
255
255
255
255
255
255
255
255
255
255
255
255
255
255
255
0
89
255
255
255
255
255
255
255
255
255
15
80
255
255
255
255
255
255
255
255
255
255
255
255
255
255
255
255
255
137
21
56
255
255
255
255
255
255
210
56
6
140
255
255
255
255
255
255
255
255
255
255
255
255
255
255
255
255
255
255
170
0
10
137
210
191
170
43
6
12
0
255
255
255
255
255
255
255
255
255
255
255
255
255
255
255
255
255
255
255
255
232
71
0
0
21
0
38
137
255
255
255
255
255
255
255
255
255
255
255
255
255
255
255
255
255
255
255
255
255
255
255
255
255
255
255
255
255
255
255
255
255
255
255
255
255
255
255
255
255
255
255
255
255
255
255
255
255
255
255
255
255
255
255
255
255
255
255
255
255
255
255
255
255
255
255
255
255
255
255
255
255
255
255
255
255
255
255
255
255
255
255
255
255
255
255
255
255
255
255
255
255
255
255
255
255
255
255
255
255
255
255
255
255
255
255
255
255
255
255
255
255
255
255
255
255
255
255
255
255
255
255
255
255
255
255
255
255
255
255
255
255
255
255
255
255
255
255
255
255
255
255
255
255
255
255
255
255
255
255
255
255
255
255
255
255
255
255
255
255
255
255
255
255
255
255
255
255
255
255
255
255
255
255
255
255
255
255
255
255
255
255
255
255
255
255
255
255
255
255
255
255
255
255
255
255
255
255
255
255
255
255
255
255
255
255
255
255
255
255
255
255
255
255
255
255
255
255
255
255
