P2
# Created by GIMP version 2.10.30 PNM plug-in
30 30
255
255
255
255
255
255
255
255
255
255
255
255
255
255
255
255
255
255
255
255
255
255
255
255
255
255
255
255
255
255
255
255
255
255
255
255
255
255
255
255
255
255
255
255
255
255
255
255
255
255
255
255
255
255
255
255
255
255
255
255
255
255
255
255
255
255
255
255
255
255
255
255
255
255
255
255
255
255
255
255
255
255
255
255
255
255
255
255
255
255
255
255
255
255
255
255
255
255
255
255
255
255
255
255
255
232
99
89
232
255
255
255
255
255
255
255
255
255
255
255
255
255
255
255
255
255
255
255
255
255
255
255
255
232
38
0
62
62
0
62
255
255
255
255
255
255
255
255
255
255
255
255
255
255
255
255
255
255
255
255
255
255
188
21
34
170
230
255
88
0
53
188
255
255
255
255
255
255
255
255
255
255
255
255
255
255
255
255
255
255
255
188
0
0
255
255
255
255
255
202
94
62
232
255
255
255
255
255
255
255
255
255
255
255
255
255
255
255
255
255
255
99
0
255
255
255
255
255
255
255
255
0
232
255
255
255
255
255
255
255
255
255
255
255
255
255
255
255
255
255
255
62
0
255
255
255
255
255
255
255
255
0
124
255
255
255
255
255
255
255
255
255
255
255
255
255
255
255
255
255
255
33
100
255
255
255
255
255
255
255
255
0
124
255
255
255
255
255
255
255
255
255
255
255
255
255
255
255
255
255
255
0
99
255
255
255
255
255
255
255
112
4
188
255
255
255
255
255
255
255
255
255
255
255
255
255
255
255
255
255
255
0
88
232
255
255
255
255
255
188
6
13
188
255
255
255
255
255
255
255
255
255
255
255
255
255
255
255
255
255
255
170
25
79
255
255
255
255
188
71
34
0
232
255
255
255
255
255
255
255
255
255
255
255
255
255
255
255
255
255
255
255
0
0
0
62
0
43
38
0
99
0
232
255
255
255
255
255
255
255
255
255
255
255
255
255
255
255
255
255
255
255
255
255
88
112
137
124
154
232
232
21
210
255
255
255
255
255
255
255
255
255
255
255
255
255
255
255
255
255
255
255
255
255
255
255
255
255
255
255
232
38
170
255
255
255
255
255
255
255
255
255
255
255
255
255
255
255
255
255
255
255
255
255
255
255
255
255
255
255
255
0
170
255
255
255
255
255
255
255
255
255
255
255
255
255
255
255
255
255
255
255
255
255
255
255
255
255
255
255
254
0
124
255
255
255
255
255
255
255
255
255
255
255
255
255
255
255
255
255
255
255
255
255
255
255
255
255
255
255
250
38
112
255
255
255
255
255
255
255
255
255
255
255
255
255
255
255
255
255
0
255
255
255
255
255
255
255
255
255
255
38
154
255
255
255
255
255
255
255
255
255
255
255
255
255
255
255
255
0
0
255
255
255
255
255
255
255
255
255
255
49
100
255
255
255
255
255
255
255
255
255
255
255
255
255
255
255
255
255
0
210
255
255
255
255
255
255
255
255
255
49
100
255
255
255
255
255
255
255
255
255
255
255
255
255
255
255
255
255
0
50
255
255
255
255
255
255
255
255
232
0
137
255
255
255
255
255
255
255
255
255
255
255
255
255
255
255
255
255
71
10
188
255
255
255
255
255
255
255
124
12
232
255
255
255
255
255
255
255
255
255
255
255
255
255
255
255
255
255
188
0
0
137
255
255
255
255
255
79
57
88
255
255
255
255
255
255
255
255
255
255
255
255
255
255
255
255
255
255
255
170
0
0
8
49
71
56
0
0
0
255
255
255
255
255
255
255
255
255
255
255
255
255
255
255
255
255
255
255
255
255
255
170
0
39
29
79
170
255
255
255
255
255
255
255
255
255
255
255
255
255
255
255
255
255
255
255
255
255
255
255
255
255
255
255
255
255
255
255
255
255
255
255
255
255
255
255
255
255
255
255
255
255
255
255
255
255
255
255
255
255
255
255
255
255
255
255
255
255
255
255
255
255
255
255
255
255
255
255
255
255
255
255
255
255
255
255
255
255
255
255
255
255
255
255
255
255
255
255
255
255
255
255
255
255
255
255
255
255
255
