P2
# Created by GIMP version 2.10.30 PNM plug-in
30 30
255
255
255
255
255
255
255
255
255
255
255
255
255
255
255
255
255
255
255
255
255
255
255
255
255
255
255
255
255
255
255
255
255
255
255
255
255
255
255
255
255
255
255
255
255
255
255
255
255
255
255
255
255
255
255
255
255
255
255
255
255
255
255
255
255
255
255
255
255
255
255
255
255
255
255
255
255
255
255
255
255
255
255
255
255
255
255
255
255
255
255
255
255
255
255
255
255
255
255
255
255
255
255
204
204
188
255
255
255
255
255
255
255
255
255
255
255
255
255
255
255
255
255
255
255
255
255
255
255
255
255
255
0
32
0
0
0
0
112
110
255
255
255
255
255
255
255
255
255
255
255
255
255
255
255
255
255
255
255
255
255
0
0
170
255
255
153
21
0
0
71
188
255
255
255
255
255
255
255
255
255
255
255
255
255
255
255
255
255
255
89
56
188
255
255
255
255
255
137
187
71
0
255
255
255
255
255
255
255
255
255
255
255
255
255
255
255
255
255
255
25
56
255
255
255
255
255
255
255
255
255
0
55
232
255
255
255
255
255
255
255
255
255
255
255
255
255
255
255
170
38
232
255
255
255
255
255
255
255
255
255
255
137
137
255
255
255
255
255
255
255
255
255
255
255
255
255
255
255
188
0
232
255
255
255
255
255
255
255
255
255
255
99
0
255
255
255
255
255
255
255
255
255
255
255
255
255
255
255
170
38
232
255
255
255
255
255
255
255
255
255
255
89
3
232
255
255
255
255
255
255
255
255
255
255
255
255
255
255
232
21
210
255
255
255
255
255
255
255
255
255
255
38
12
232
255
255
255
255
255
255
255
255
255
255
255
255
255
255
232
0
88
255
255
255
255
255
255
255
255
255
255
0
0
255
255
255
255
255
255
255
255
255
255
255
255
255
255
255
255
122
0
124
255
254
255
255
255
255
252
255
38
0
0
255
255
255
255
255
255
255
255
255
255
255
255
255
255
255
255
255
0
0
43
188
255
255
255
232
255
25
0
0
0
255
255
255
255
255
255
255
255
255
255
255
255
255
255
255
255
255
255
88
34
0
8
15
0
0
0
0
137
124
0
232
255
255
255
255
255
255
255
255
255
255
255
255
255
255
255
255
255
255
232
170
80
0
112
124
124
210
255
170
38
232
255
255
255
255
255
255
255
255
255
255
255
255
255
255
255
255
255
255
255
255
255
255
255
255
255
254
255
255
0
99
255
255
255
255
255
255
255
255
255
255
255
255
255
255
255
255
255
255
255
255
255
255
255
255
255
250
255
255
43
89
255
255
255
255
255
255
255
255
255
255
255
255
255
255
255
255
255
255
255
255
255
255
255
255
255
255
255
255
99
43
255
255
255
255
255
255
255
255
255
255
255
255
255
255
255
255
255
255
255
255
255
255
255
255
255
255
255
255
210
18
232
255
255
255
255
255
255
255
255
255
255
255
255
255
255
255
255
255
255
255
255
255
255
255
255
255
255
255
191
21
255
255
255
255
255
255
255
255
255
255
255
255
255
255
255
255
255
255
255
255
255
255
255
255
255
255
255
255
232
0
188
255
255
255
255
255
255
255
255
255
255
255
255
255
255
255
255
255
255
255
255
255
255
255
255
255
255
255
255
0
232
255
255
255
255
255
255
255
255
255
255
255
255
255
255
255
255
255
255
255
255
255
255
255
255
255
255
255
255
0
188
255
255
255
255
255
255
255
255
255
255
255
255
255
255
255
255
255
255
255
255
255
255
255
255
255
255
255
255
38
154
255
255
255
255
255
255
255
255
255
255
255
255
255
255
255
255
255
255
255
255
255
255
255
255
255
255
255
255
88
170
255
255
255
255
255
255
255
255
255
255
255
255
255
255
255
255
255
255
255
255
255
255
255
255
255
255
255
255
255
255
255
255
255
255
255
255
255
255
255
255
255
255
255
255
255
255
255
255
255
255
255
255
255
255
255
255
255
255
255
255
255
255
255
255
255
255
255
255
255
255
255
255
255
255
255
255
255
255
255
255
255
255
255
255
255
255
255
255
255
255
255
255
255
255
255
